<svg id="Layer_1" data-name="Layer 1" xmlns="http://www.w3.org/2000/svg" xmlns:xlink="http://www.w3.org/1999/xlink" viewBox="0 0 560 420"><defs><style>.cls-1{fill:#ffde83;}.cls-13,.cls-2{fill:#fff;}.cls-3{fill:#e5e5e5;}.cls-4{fill:#a2ecc2;}.cls-11,.cls-5,.cls-6{fill:none;}.cls-11,.cls-12,.cls-13,.cls-5,.cls-6{stroke:#3a3836;}.cls-13,.cls-5,.cls-6{stroke-width:2px;}.cls-11,.cls-12,.cls-6{stroke-linecap:round;stroke-linejoin:round;}.cls-7{fill:url(#linear-gradient);}.cls-8{fill:url(#linear-gradient-2);}.cls-9{opacity:0.7;}.cls-10{fill:#ff6c37;}.cls-11{stroke-width:2.1px;}.cls-12{fill:#d1dafa;stroke-width:1.68px;}.cls-13{stroke-miterlimit:10;}.cls-14{fill:#3a3836;}</style><linearGradient id="linear-gradient" x1="287.12" y1="248.63" x2="333.04" y2="248.63" gradientUnits="userSpaceOnUse"><stop offset="0" stop-color="#ff6d37"/><stop offset="0.54" stop-color="#fa9139"/><stop offset="1" stop-color="#f7ac3b"/></linearGradient><linearGradient id="linear-gradient-2" x1="287.12" y1="268.46" x2="324.71" y2="268.46" xlink:href="#linear-gradient"/></defs><circle class="cls-1" cx="274.19" cy="173.54" r="97.52"/><path class="cls-2" d="M217.36,256.28s-17-13.35-11.72-32.28c0,0,3.17-12.06,11.72-19.55V193.11a7.63,7.63,0,0,1,9.39-4l7.12-.41-4.74-13.07-9-3-1.23-1.75V160.36l3-1.47,6.05-2.77s5.73-43.08,50.61-43.69,50.21,44,50.21,44l7.73,3.29v12.46l-9.33,3.42L323,187.29l8.55-4.47,15.86-10.36L359,163.9s13.15-10.92,22.87,1.37-2.71,22.37-2.71,22.37-29.15,32.9-49.65,37.1l8.22.52s11.76,9.9,9.43,55.29-6.4,54.92,4.06,64.84l12.48,0s16.53,24-13.48,33.16l-59,1.67s-18.84-.08-16-18,1.48-46,1.48-46-4.16-2.88-4.38,1.48-2.4,46.19-2.4,46.19-1.29,16.78-19.22,17.28-19-15.61-19-15.61l-.47-86.89H221.16s-3.8-2.14-3.8-9.64Z"/><path class="cls-3" d="M260.21,211.77s19.5,13.47,45.35,4.12v-10.5S293.6,216.62,260.21,211.77Z"/><path class="cls-4" d="M388.48,368.15s-9.7-39.41,8.64-41.15c13.33-1.26,8.25,41.15,8.25,41.15Z"/><path class="cls-4" d="M401.94,368.15s-6.25-55.31,11.61-70.65,9.83,70.81,9.83,70.81Z"/><path class="cls-4" d="M422.87,368.15s-6.25-41.45,11.61-53.09,9.83,52.7,9.83,52.7Z"/><line class="cls-5" x1="409.88" y1="367.21" x2="413.03" y2="327"/><polyline class="cls-5" points="411.45 352.16 432.85 338.81 434.85 328.74"/><line class="cls-5" x1="414.03" y1="320.47" x2="414.42" y2="313.66"/><path class="cls-3" d="M361.19,377.21l-6.08-.14-26.64,2.63L294,381.09l-5.74-.86c-6-.37-11.6-2.08-12-8.1l-1.07-6.59c-2.62.09-1.58,0-5.34.17-1.93.11-3.64,9-7.7,11.11-8.63,4.4-11.74,7.5-23.68-.59-4.42-3-3.7-7.22-7.16-7.05-14.33.74-22.91,5.63-22.91,9.24,0,7.22,35.11,13.07,78.42,13.07,24.77,0,46.85-1.91,61.22-4.9a39.61,39.61,0,0,0,14.39-6.21h0A1.85,1.85,0,0,0,361.19,377.21Z"/><circle class="cls-6" cx="278.04" cy="163.07" r="50.48"/><path class="cls-6" d="M231.41,264.14v97.68a19.32,19.32,0,0,0,19.32,19.33h0a19.32,19.32,0,0,0,19.33-19.33l2.29-44.14a2.53,2.53,0,0,1,2.65-2.4l.66.41"/><path class="cls-3" d="M277.63,296.82l-31.13.45-.11-28.21,14.24-1.19,8.08-8.42-.34-9.66-5.35-6.5-14.87-6.43c0-8.14,6.6-12.12,14.74-12.12h0c8.14,0,14.74,4,14.74,12.12Z"/><path class="cls-6" d="M235.22,191.32s-44,23.49-26.34,54.79a35.28,35.28,0,0,0,15.62,14.12c7.12,3.45,16,8.68,28.89,8.78a15.83,15.83,0,0,0,12.36-5.59,15.26,15.26,0,0,0,3.49-7.55,11.71,11.71,0,0,0-6.52-12l-31.11-15.46"/><path class="cls-6" d="M249.49,235.79h0A10.52,10.52,0,0,1,260,225.26h5.73A10.52,10.52,0,0,1,276.28,236c-.49,25.43,2.18,89.73-.9,123.84-3.43,38.08,52.09,16.78,37.28-14.48h51.07s15,28.21-15.62,32.49L290,380.23"/><path class="cls-6" d="M265.75,225.26h69.92s17.43-3.12,9.53,92.08c0,0-2.51,25.09,6.05,28.05"/><path class="cls-6" d="M237.78,231.42c9.06-21.71-7.92-35.73-7.92-35.73"/><path class="cls-6" d="M250.28,206.14c2.71,7.16,3.52,18.87,1,23.53"/><path class="cls-6" d="M305.16,206.93s-1.1,15.72,2.75,17.92"/><path class="cls-6" d="M316.45,195.89s-2.5,26.18,3.27,28.66"/><path class="cls-6" d="M217.36,204.82v-9.6a6.11,6.11,0,0,1,6.11-6.1h11"/><path class="cls-6" d="M231.3,278.65h-7.83a6.11,6.11,0,0,1-6.11-6.1V256.28"/><polyline class="cls-6" points="245.88 269.39 245.88 298.42 276.73 298.42"/><rect class="cls-7" x="287.12" y="244.25" width="45.92" height="8.76"/><rect class="cls-8" x="287.12" y="264.06" width="37.59" height="8.82"/><rect class="cls-6" x="286.83" y="244.47" width="46" height="9.28"/><rect class="cls-6" x="286.83" y="263.59" width="37.46" height="9.28"/><line class="cls-6" x1="278.47" y1="104.62" x2="278.51" y2="112.43"/><g class="cls-9"><circle class="cls-10" cx="278.55" cy="97.7" r="7.15"/></g><circle class="cls-6" cx="278.55" cy="97.7" r="7.15"/><path class="cls-6" d="M328.72,156.47l6.14,2.81a3.82,3.82,0,0,1,2.12,3.49v7a3.75,3.75,0,0,1-2.54,3.65l-7.32,2.2"/><path class="cls-6" d="M328.72,156.47l6.14,2.81a3.82,3.82,0,0,1,2.12,3.49v7a3.75,3.75,0,0,1-2.54,3.65l-7.32,2.2"/><path class="cls-6" d="M227.9,156.12l-6.9,3.16a3.8,3.8,0,0,0-2.12,3.49v7a3.74,3.74,0,0,0,2.53,3.65l7.32,2.2"/><path class="cls-6" d="M318.11,167.14c.5,15.83-16.54,33.62-38.21,34.29s-39.78-16-40.27-31.84,0-28.69,38.33-29.89C314.58,138.58,317.62,151.32,318.11,167.14Z"/><path class="cls-6" d="M322.14,187.64s10.9-3.92,35.5-22.73c7.41-5.67,16.82-7.63,23.23-.85h0a15.48,15.48,0,0,1,1.39,19.6c-10.43,14.64-31.62,30.51-53.74,41.6"/><path class="cls-6" d="M275.73,55.55H93.05A12.17,12.17,0,0,1,80.88,43.37V34.78A12.17,12.17,0,0,1,93.05,22.6H103.8A12.18,12.18,0,0,1,116,34.78h0"/><path class="cls-11" d="M260.88,55.55H462.21c7.41,0,13.42-5.45,13.42-12.18V34.78c0-6.73-6-12.18-13.42-12.18H450.37c-7.42,0-13.43,5.45-13.43,12.18h0"/><line class="cls-6" x1="108.71" y1="227.43" x2="108.71" y2="55.55"/><polyline class="cls-6" points="65.58 227.43 108.71 55.55 155.49 227.19"/><path class="cls-12" d="M56.87,228.3H166a0,0,0,0,1,0,0v5.59a44.76,44.76,0,0,1-44.76,44.76H101.63a44.76,44.76,0,0,1-44.76-44.76V228.3a0,0,0,0,1,0,0Z"/><line class="cls-11" x1="278.04" y1="47.07" x2="278.04" y2="76.02"/><line class="cls-11" x1="269.35" y1="47.07" x2="287.12" y2="47.07"/><line class="cls-6" x1="366.05" y1="367.66" x2="465.98" y2="367.66"/><line class="cls-6" x1="93.05" y1="367.66" x2="232.98" y2="367.66"/><line class="cls-6" x1="477.53" y1="367.54" x2="501.92" y2="367.54"/><line class="cls-6" x1="445.71" y1="227.43" x2="445.71" y2="55.55"/><polyline class="cls-6" points="402.58 227.43 445.71 55.55 492.49 227.19"/><path class="cls-12" d="M393.87,228.3H503a0,0,0,0,1,0,0v5.59a44.76,44.76,0,0,1-44.76,44.76H438.63a44.76,44.76,0,0,1-44.76-44.76V228.3a0,0,0,0,1,0,0Z"/><line class="cls-6" x1="80.88" y1="367.66" x2="56.87" y2="367.66"/><path class="cls-13" d="M47.33,116.14l7,2.29-7,2.28-2.29,7-2.28-7-7-2.28,7-2.29,2.28-7Z"/><path class="cls-13" d="M513.89,297.5l7,2.28-7,2.28-2.29,7-2.28-7-7-2.28,7-2.28,2.28-7Z"/><path class="cls-14" d="M523.1,226.82l4.52,1.48-4.52,1.47-1.48,4.53-1.47-4.53-4.53-1.47,4.53-1.48,1.47-4.52Z"/></svg>